<?xml version="1.0" encoding="UTF-8"?>
<!-- Generator: Adobe Illustrator 21.1.0, SVG Export Plug-In . SVG Version: 6.00 Build 0)  -->
<svg version="1.1" id="Layer_1" xmlns="http://www.w3.org/2000/svg" xmlns:xlink="http://www.w3.org/1999/xlink" x="0px" y="0px" viewBox="0 0 615.8 394.4" style="enable-background:new 0 0 615.8 394.4;" xml:space="preserve">
<style type="text/css">
	.st0{fill:#EDF1F2;}
	.st1{fill:url(#SVGID_1_);}
	.st2{clip-path:url(#SVGID_3_);}
	.st3{fill:url(#SVGID_4_);}
	.st4{fill:url(#SVGID_5_);}
	.st5{clip-path:url(#SVGID_7_);}
	.st6{fill:url(#SVGID_8_);}
	.st7{fill:url(#SVGID_9_);}
	.st8{clip-path:url(#SVGID_11_);}
	.st9{fill:url(#SVGID_12_);}
	.st10{fill:url(#SVGID_13_);}
	.st11{fill:url(#SVGID_14_);}
	.st12{fill:url(#SVGID_15_);}
	.st13{fill:url(#SVGID_16_);}
	.st14{clip-path:url(#SVGID_18_);}
	.st15{fill:url(#SVGID_19_);}
	.st16{fill:#06CBFF;}
	.st17{clip-path:url(#SVGID_21_);fill:#06B4FF;}
	.st18{fill:#06B4FF;}
	.st19{fill:#084480;}
	.st20{fill:#0073DE;}
	.st21{fill:#FFE01B;}
	.st22{fill:#FFBB1B;}
	.st23{fill:#0063BF;}
	.st24{fill:none;stroke:#084480;stroke-width:1.5;stroke-linecap:round;stroke-linejoin:round;}
	.st25{fill:#FF7381;}
	.st26{fill:#FF5768;}
	.st27{fill:url(#SVGID_22_);}
	.st28{fill:#FFC7DB;}
	.st29{fill:#FFADCB;}
	.st30{fill:none;stroke:#084480;stroke-width:3;stroke-linecap:round;stroke-linejoin:round;}
	.st31{fill:#4681C2;}
	.st32{fill:#07396B;}
</style>
<title>empty_inbox</title>
<ellipse class="st0" cx="140.1" cy="257.4" rx="81.5" ry="5.4"/>
<g>
	
		<linearGradient id="SVGID_1_" gradientUnits="userSpaceOnUse" x1="323.3412" y1="130.0743" x2="356.0933" y2="130.0743" gradientTransform="matrix(1 0 0 -1 0 148.2743)">
		<stop offset="0" style="stop-color:#FCB935"/>
		<stop offset="1" style="stop-color:#FDDD3A"/>
	</linearGradient>
	<path class="st1" d="M356.1,18.2c-9.7,0-16.4,9-16.4,18.2c0-9-6.6-18.2-16.4-18.2c9.7,0,16.4-9,16.4-18.2   C339.7,9,346.4,18.2,356.1,18.2z"/>
	<g>
		<g>
			<g>
				<defs>
					<path id="SVGID_2_" d="M356.1,18.2c-9.7,0-16.4,9-16.4,18.2c0-9-6.6-18.2-16.4-18.2c9.7,0,16.4-9,16.4-18.2       C339.7,9,346.4,18.2,356.1,18.2z"/>
				</defs>
				<clipPath id="SVGID_3_">
					<use xlink:href="#SVGID_2_" style="overflow:visible;"/>
				</clipPath>
				<g class="st2">
					
						<linearGradient id="SVGID_4_" gradientUnits="userSpaceOnUse" x1="302.1769" y1="123.5763" x2="363.5606" y2="123.5763" gradientTransform="matrix(1 0 0 -1 0 148.2743)">
						<stop offset="0" style="stop-color:#FFBB1B"/>
						<stop offset="1" style="stop-color:#FFE01B"/>
					</linearGradient>
					<path class="st3" d="M310,12.2c2.2,3,5.8,4.8,9.4,6c5.8,2.1,12.4,3.2,17.8,0.4c2.3-1.2,4.2-3.1,6.4-4.5       c4.2-2.6,9.7-3.4,14.1-1.2s7.1,7.8,5.4,12.4c-1.2,3.1-4.1,5.4-7,7c-14.2,7.8-31.5,7.2-45.2-1.4c-2.4-1.4-4.6-3.4-6.2-5.6       c-1.8-2.3-2.6-5.1-2.3-8"/>
				</g>
			</g>
		</g>
	</g>
</g>
<g>
	
		<linearGradient id="SVGID_5_" gradientUnits="userSpaceOnUse" x1="5.339813e-02" y1="43.6743" x2="25.3934" y2="43.6743" gradientTransform="matrix(1 0 0 -1 0 148.2743)">
		<stop offset="0" style="stop-color:#FCB935"/>
		<stop offset="1" style="stop-color:#FDDD3A"/>
	</linearGradient>
	<path class="st4" d="M25.4,104.6c-7.5,0-12.7,7-12.7,14c0-7-5.2-14-12.7-14c7.5,0,12.7-7,12.7-14C12.7,97.6,17.9,104.6,25.4,104.6z   "/>
	<g>
		<g>
			<g>
				<defs>
					<path id="SVGID_6_" d="M25.4,104.6c-7.5,0-12.7,7-12.7,14c0-7-5.2-14-12.7-14c7.5,0,12.7-7,12.7-14       C12.7,97.6,17.9,104.6,25.4,104.6z"/>
				</defs>
				<clipPath id="SVGID_7_">
					<use xlink:href="#SVGID_6_" style="overflow:visible;"/>
				</clipPath>
				<g class="st5">
					
						<linearGradient id="SVGID_8_" gradientUnits="userSpaceOnUse" x1="-16.2783" y1="38.5566" x2="31.195" y2="38.5566" gradientTransform="matrix(1 0 0 -1 0 148.2743)">
						<stop offset="0" style="stop-color:#FFBB1B"/>
						<stop offset="1" style="stop-color:#FFE01B"/>
					</linearGradient>
					<path class="st6" d="M-10.3,100c1.7,2.4,4.5,3.7,7.2,4.7c4.5,1.6,9.6,2.5,13.8,0.3c1.8-0.9,3.3-2.4,5-3.5       c3.2-2,7.5-2.6,10.9-0.9s5.5,6,4.1,9.6c-0.9,2.4-3.2,4.1-5.4,5.4c-11,6-24.3,5.6-34.9-1.1c-1.9-1.1-3.5-2.6-4.9-4.4       c-1.3-1.8-2-4-1.8-6.2"/>
				</g>
			</g>
		</g>
	</g>
</g>
<g>
	
		<linearGradient id="SVGID_9_" gradientUnits="userSpaceOnUse" x1="555.2397" y1="85.4743" x2="587.9916" y2="85.4743" gradientTransform="matrix(1 0 0 -1 0 148.2743)">
		<stop offset="0" style="stop-color:#FCB935"/>
		<stop offset="1" style="stop-color:#FDDD3A"/>
	</linearGradient>
	<path class="st7" d="M588,62.8c-9.7,0-16.4,9-16.4,18.2c0-9-6.6-18.2-16.4-18.2c9.7,0,16.4-9,16.4-18.2   C571.6,53.7,578.3,62.8,588,62.8z"/>
	<g>
		<g>
			<g>
				<defs>
					<path id="SVGID_10_" d="M588,62.8c-9.7,0-16.4,9-16.4,18.2c0-9-6.6-18.2-16.4-18.2c9.7,0,16.4-9,16.4-18.2       C571.6,53.7,578.3,62.8,588,62.8z"/>
				</defs>
				<clipPath id="SVGID_11_">
					<use xlink:href="#SVGID_10_" style="overflow:visible;"/>
				</clipPath>
				<g class="st8">
					
						<linearGradient id="SVGID_12_" gradientUnits="userSpaceOnUse" x1="534.1072" y1="78.8763" x2="595.4109" y2="78.8763" gradientTransform="matrix(1 0 0 -1 0 148.2743)">
						<stop offset="0" style="stop-color:#FFBB1B"/>
						<stop offset="1" style="stop-color:#FFE01B"/>
					</linearGradient>
					<path class="st9" d="M541.8,56.9c2.2,3.1,5.8,4.8,9.4,6c5.8,2.1,12.4,3.2,17.8,0.4c2.3-1.2,4.2-3.1,6.4-4.5       c4.2-2.6,9.7-3.4,14.1-1.2c4.4,2.2,7.1,7.8,5.4,12.4c-1.2,3.1-4.1,5.4-7,7c-14.2,7.8-31.4,7.2-45.1-1.4       c-2.4-1.4-4.6-3.4-6.2-5.6c-1.8-2.3-2.6-5.1-2.3-8"/>
				</g>
			</g>
		</g>
	</g>
</g>
<g>
	
		<linearGradient id="SVGID_13_" gradientUnits="userSpaceOnUse" x1="40.4" y1="98.7743" x2="60.7693" y2="98.7743" gradientTransform="matrix(1 0 0 -1 0 148.2743)">
		<stop offset="0" style="stop-color:#FCB935"/>
		<stop offset="1" style="stop-color:#FDDD3A"/>
	</linearGradient>
	<path class="st10" d="M60.8,49.5c-6,0-10.2,5.6-10.2,11.3c0-5.6-4.2-11.3-10.2-11.3c6,0,10.2-5.6,10.2-11.3   C50.6,43.9,54.8,49.5,60.8,49.5z"/>
</g>
<g>
	
		<linearGradient id="SVGID_14_" gradientUnits="userSpaceOnUse" x1="595.452" y1="39.8743" x2="615.8214" y2="39.8743" gradientTransform="matrix(1 0 0 -1 0 148.2743)">
		<stop offset="0" style="stop-color:#FCB935"/>
		<stop offset="1" style="stop-color:#FDDD3A"/>
	</linearGradient>
	<path class="st11" d="M615.8,108.4c-6,0-10.2,5.6-10.2,11.3c0-5.6-4.2-11.3-10.2-11.3c6,0,10.2-5.6,10.2-11.3   C605.6,102.7,609.8,108.4,615.8,108.4z"/>
</g>
<g>
	
		<linearGradient id="SVGID_15_" gradientUnits="userSpaceOnUse" x1="378.6" y1="91.1743" x2="398.9693" y2="91.1743" gradientTransform="matrix(1 0 0 -1 0 148.2743)">
		<stop offset="0" style="stop-color:#FCB935"/>
		<stop offset="1" style="stop-color:#FDDD3A"/>
	</linearGradient>
	<path class="st12" d="M399,57.1c-6,0-10.2,5.6-10.2,11.3c0-5.6-4.2-11.3-10.2-11.3c6,0,10.2-5.6,10.2-11.3   C388.8,51.4,393,57.1,399,57.1z"/>
</g>
<g>
	
		<linearGradient id="SVGID_16_" gradientUnits="userSpaceOnUse" x1="237.6033" y1="57.0743" x2="267.5286" y2="57.0743" gradientTransform="matrix(1 0 0 -1 0 148.2743)">
		<stop offset="0" style="stop-color:#FCB935"/>
		<stop offset="1" style="stop-color:#FDDD3A"/>
	</linearGradient>
	<path class="st13" d="M267.5,91.2c-8.8,0-15,8.3-15,16.6c0-8.3-6.1-16.6-15-16.6c8.8,0,15-8.3,15-16.6   C252.5,82.9,258.7,91.2,267.5,91.2z"/>
	<g>
		<g>
			<g>
				<defs>
					<path id="SVGID_17_" d="M267.5,91.2c-8.8,0-15,8.3-15,16.6c0-8.3-6.1-16.6-15-16.6c8.8,0,15-8.3,15-16.6       C252.5,82.9,258.7,91.2,267.5,91.2z"/>
				</defs>
				<clipPath id="SVGID_18_">
					<use xlink:href="#SVGID_17_" style="overflow:visible;"/>
				</clipPath>
				<g class="st14">
					
						<linearGradient id="SVGID_19_" gradientUnits="userSpaceOnUse" x1="218.302" y1="51.1107" x2="274.3149" y2="51.1107" gradientTransform="matrix(1 0 0 -1 0 148.2743)">
						<stop offset="0" style="stop-color:#FFBB1B"/>
						<stop offset="1" style="stop-color:#FFE01B"/>
					</linearGradient>
					<path class="st15" d="M225.4,85.7c2,2.8,5.3,4.4,8.6,5.5c5.3,1.9,11.3,2.9,16.3,0.4c2.1-1.1,3.9-2.9,5.8-4.1       c3.8-2.4,8.8-3.1,12.9-1.1s6.5,7.1,4.9,11.3c-1.1,2.9-3.7,4.9-6.4,6.4c-12.9,7.1-28.7,6.6-41.2-1.3c-2.2-1.3-4.2-3.1-5.7-5.1       c-1.6-2.1-2.3-4.7-2.1-7.3"/>
				</g>
			</g>
		</g>
	</g>
</g>
<path class="st0" d="M255.2,192.9"/>
<path class="st16" d="M237,251.4l1,7.5c0,0-3.8,20,6.6,18c10.2-2-1.1-17.9-1.1-17.9l1.3-6.7L237,251.4z"/>
<path class="st16" d="M337.8,132.4c0,0,14.2,35.3,3.3,39.5c-6.8,2.7-16.7,1.3-16.7,1.3l4.2,20.8l-20.7-8c0,0,1.8-29.8,2.4-44.9  C310.7,132.9,330.5,130,337.8,132.4z"/>
<g>
	<g>
		<defs>
			<path id="SVGID_20_" d="M337.8,132.4c0,0,14.2,35.3,3.3,39.5c-6.8,2.7-16.7,1.3-16.7,1.3l4.2,21L308,186c0,0,1.8-29.8,2.4-44.9     C310.7,132.9,330.5,130,337.8,132.4z"/>
		</defs>
		<clipPath id="SVGID_21_">
			<use xlink:href="#SVGID_20_" style="overflow:visible;"/>
		</clipPath>
		<path class="st17" d="M327.2,173.8l-11-2.5c0,0,6.7,19.1,12.4,19.5C334.2,191.2,327.2,173.8,327.2,173.8z"/>
	</g>
</g>
<path class="st18" d="M339,136.3c0,0-4.3,12.3-9.5,14.5c-5.1,2.3-13.8-2.5-13.9-3.1c-0.1-0.5-0.4-10.3-0.4-10.3L338,133L339,136.3z"/>
<g>
	<path class="st19" d="M309,170.6l1.3-12.7l0,0L309,170.6z"/>
</g>
<path class="st16" d="M366.4,160.4c0,0-10.9-7.2-8.9-9.6s6.6,2,6.6,2s-1.3-15.9,5.3-14.9c6.1,0.9,2.9,19.7,2.9,19.7l2.1,8.5  l-7.3,0.1L366.4,160.4z"/>
<path class="st20" d="M375.1,164.6c0,0,12.9,46.3-5.7,53.4c-14.9,5.7-40.3-0.8-40.3-0.8l-12.5,39.2l-46.1-1c0,0,0.1-26.3,21.1-50.2  c0,0-41.5-10.9-46.4,48.4h-8.2c0,0-6.6-31.2,12.5-54.2c19.9-23.9,59.5-15.7,59.5-15.7s13.7,4.6,28,10.5c11,4.5,20.7,9.8,27.5,4.5  c5.9-4.5,3.1-20.1,1.4-34.1L375.1,164.6z"/>
<path class="st21" d="M308.1,183.5c0,0,0.4,63.6,2.1,63.4c3.4-0.4,17.9-56.3,17.9-56.3S318.3,185.3,308.1,183.5z"/>
<g>
	<path class="st22" d="M308.2,190.9c0,0.6,0,1.3,0,2l18.3,3.6c0.2-0.7,0.4-1.3,0.5-1.9L308.2,190.9z"/>
	<path class="st22" d="M308.3,202c0,0.7,0,1.3,0,2l15.6,2c0.2-0.7,0.4-1.3,0.5-1.9L308.3,202z"/>
	<path class="st22" d="M308.4,211.2c0,0.7,0,1.3,0,2l13,1.5c0.2-0.7,0.4-1.3,0.5-1.9L308.4,211.2z"/>
	<path class="st22" d="M308.7,222.9c0,0.7,0,1.4,0.1,2l9.5,1.1c0.2-0.6,0.4-1.3,0.6-1.9L308.7,222.9z"/>
	<path class="st22" d="M315,236.1c0.2-0.6,0.4-1.3,0.6-1.9l-6.7-0.8c0,0.7,0.1,1.4,0.1,2L315,236.1z"/>
</g>
<g>
	<g>
		<path class="st20" d="M108.7,97.3c5.2,17.8,17.8,23,38.1,30.1s38.8,10.8,44.8-5.9s-12.1-24.3-15-34.1c-2.9-9.9,18.9-26-3.8-41.7    C157,34.8,145,50.5,145,50.5C105.8,34,103.9,81,108.7,97.3z"/>
		<g>
			<path class="st23" d="M169.7,97.1c-9-6.3-8.3-21.9-6.8-31.3c0,0-12,8.6-17.6,7.6c-5.6-0.9-5.9-9.9-5.9-9.9     C119.9,52,124.1,97,106.8,83.6c0.1,5.3,0.8,10.2,1.9,13.7c5.2,17.8,17.8,23,38.1,30.1c20.3,7.1,38.8,10.8,44.8-5.9     c4-11-2.5-18-8.3-24.4C178.9,98.6,174.8,100.7,169.7,97.1z"/>
		</g>
		<path class="st24" d="M162.2,75.6c0.4,0,9.2,3,9.2,3"/>
		<path class="st25" d="M141,109.5l0.1,2c0,0-12.5-4.4-18.2-6.7l9.2-27.5c0,0-7.4-5.3-4.5-9.3c2-2.8,6.1,0.3,8.2,2.2    c0.8,0.7,1.2,1.2,1.2,1.2l2.4-7.8c0,0,12.5,6.5,24.2,2.4l0.1,0.9l0.6,4.5c0.6,3.9,1.1,15.4-3.2,22c-6.3,9.1-21.1-1.1-21.1-1.1l0,0    L141,109.5z"/>
		<path class="st26" d="M134.1,90.7l5.9,1.8l0.8,16.9l-0.4-0.3C133.3,104.4,134.1,90.7,134.1,90.7z"/>
		<circle class="st24" cx="164.4" cy="77.5" r="7"/>
		<circle class="st24" cx="146.9" cy="75.6" r="7"/>
		<path class="st24" d="M157.5,75.4l-0.2-0.2c-1-0.8-2.2-1-3.4-0.6l0,0"/>
	</g>
	<line class="st24" x1="133.2" y1="66.6" x2="140.9" y2="71.9"/>
</g>
<path class="st25" d="M66.8,156.7l-6.4,2.2l1.3,5c0,0-1.9,17.5,3.4,16.1c5.4-1.4,4.4-11.8,4.4-11.8s4.5,3.6,6,1.2  c1.6-2.4-8.3-8.1-8.3-8.1L66.8,156.7z"/>
<path class="st25" d="M198.2,148.6l2.5,5l5.1-1.7c0,0,18.4-2.1,16.3-7.2c-2.1-5.1-14.4-0.9-14.4-0.9s3-5.2,0.4-6.5s-5.8,9.5-5.8,9.5  L198.2,148.6z"/>
<path class="st25" d="M129.4,83.1L129.4,83.1L129.4,83.1L129.4,83.1z"/>
<linearGradient id="SVGID_22_" gradientUnits="userSpaceOnUse" x1="220.4179" y1="65.187" x2="220.4179" y2="65.2347" gradientTransform="matrix(-1 0 0 -1 349.8179 148.2743)">
	<stop offset="0" style="stop-color:#FF96BC"/>
	<stop offset="1" style="stop-color:#FFC7DB"/>
</linearGradient>
<path class="st27" d="M129.4,83.1C129.4,83,129.4,83,129.4,83.1L129.4,83.1L129.4,83.1L129.4,83.1z"/>
<path class="st19" d="M125.6,95.4c-29.6-5.5-50.4-2.2-64.6,16c-13.2,16.9-2,48.8-2,48.8l9.3-1.8c-9-51,32.8-47,32.8-47  c-19,27-11.8,50.8-11.8,50.8l41-5c-6-19.9,12.8-30.4,12.8-30.4s4.7,27.8,17.8,33.2c13.1,5.4,41.5-5.7,41.5-5.7l-3.2-8.3  c-42.3,9.5-34.4-14-41.4-27.9C151.9,106.3,139.9,100.3,125.6,95.4"/>
<polygon class="st28" points="164.8,212.3 99.2,241.2 95.1,234.5 158.9,190.7 "/>
<polygon class="st29" points="121,216.8 129.9,227.6 147.6,220 133.2,207.4 "/>
<path class="st28" d="M158.9,190.7l-7.8,5.4l14.2,15.4c0,0,7.2-3.8,13.8-7.8l0.2-0.1c5.1-3.7,7.6-8.1,6.6-13.6  c-3.5-17.9-55.5-32.8-55.5-32.8l-41,5c4.4,16.4,33.1,43,47.2,53.2s54.9,35.7,54.9,35.7l7.3-5.8l-33.2-33.9L133,177L158.9,190.7z"/>
<path class="st20" d="M191.5,251l5.6-7.5c0,0,5.7-8.1,13.3-4.9l-13.8,16.6L191.5,251z"/>
<path class="st20" d="M95.1,234.4l5,8c0,0,5.4,8.2-0.3,14.1l-10.4-18.9L95.1,234.4z"/>
<path class="st21" d="M121,94.6c0,0-13.9,35.6-8.4,38.7c5.4,3,34.1-28.1,34.1-28.1l-2.6-1.8c0,0-18.7,21.2-23.1,18.3  c-4.4-2.9,1.5-26.9,1.5-26.9L121,94.6z"/>
<ellipse class="st0" cx="477.1" cy="258" rx="81.5" ry="5.4"/>
<path class="st20" d="M427.3,128.2l-0.6,6.4l-7.2-3.4c0,0-18.9-3.1-17.3-8.6s13.8-1,13.8-1s-3.6-4.6-1.1-6.2s8,10.7,8,10.7  L427.3,128.2z"/>
<path class="st30" d="M473.9,57.5c0.2-6.9,5.4-24.4,23.3-16.9"/>
<path class="st20" d="M493.9,58.7c0,0,17.4,11.1,17.8,12.4s-9.9,20.2-9.9,20.2c-0.1-1.2,0.4,15.5,1.1,16.1  c0.5,0.4-18.1,0.9-18.1,0.9l4.8-14.3c0,0-15.6,0.9-18-4.8c-2.1-4.8,3.5-26.1,3.5-26.1L493.9,58.7z"/>
<path class="st23" d="M485.8,105.7c0,0-1.6,6.7,4.8,4s5.9-15.2,5.9-15.2l-6.8-0.5L485.8,105.7z"/>
<path class="st23" d="M493.9,63.9l9.1,4.5c0,0-9.7,4.7-14.2,5.1c-13.8,1.1-17.2-11-17.2-11L493.9,63.9z"/>
<path class="st16" d="M502,86.3c0,0,8.6-10.4,6.4-12.2c-2.2-1.8-6.7,2-6.7,2l0.1-7.1c0,0-9.3,2.3-11.3-5.5c0,0-5.5,6.7-15.5,0.2  c-0.2-0.1-2.6,11.2-2.6,11.2c-2.1,0.8-8.7,3.7-14-1.4c0,0,7.2-0.2,5.8-4.5s-3.9-9.3-3.4-14c0.7-7.7,5.8-14.1,18-14.8  c8.3-0.4,12.9,6.8,12.9,6.8s12.5-4.4,20.7,2.1c8,6.3,10,23.9-10.7,42.2L502,86.3z"/>
<ellipse transform="matrix(0.859 -0.512 0.512 0.859 31.9189 269.326)" class="st19" cx="504.9" cy="76.7" rx="9.3" ry="9.3"/>
<path class="st30" d="M497.1,40.6c17.8,7.5,7.8,36.1,7.8,36.1"/>
<g>
	<path class="st28" d="M486.3,103.4c-15.8,26.5-41.5,24.8-59.8,23.3l-3.3,8.5c0,0,23.6,8.7,45.7,2.5c14.5-4,24.5-11,36.6-26.2   L486.3,103.4z"/>
	<path class="st29" d="M466.6,122.2l-1.8,16.5c1.4-0.3,2.8-0.6,4.1-1c14.5-4,24.5-11,36.6-26.2l-19.2-8.2   C480.7,112.8,473.9,118.6,466.6,122.2z"/>
	<g>
		<path class="st31" d="M468.5,179.4"/>
	</g>
	<path class="st28" d="M503.7,102.8l-17.3,0.4c-6.3,11.3-6.5,30.4-15.1,49.3l36.9,11.3c4.9-16,7.3-37.9,7.3-37.9"/>
</g>
<path class="st25" d="M513.2,234c0,0-44.7-20-25.3-62.5L459.3,182c-2.7,34.1,23.9,55.5,50.5,60.1"/>
<path class="st26" d="M485.6,177.2l-1.4-4.4l-25,9.2c-0.4,5.3-0.1,10.4,0.8,15l23.1-1.3C482.6,190.3,483.3,184.1,485.6,177.2z"/>
<path class="st25" d="M508.2,163.8c-2.7,12.9-7.2,30.4-37,22.1c-36.7-10.2-38.5,29.9-29.6,52.7l-8.9,3.7c0,0-19.8-31.4-9.5-61.8  c8.4-24.8,44.9-30.2,48.5-28.8L508.2,163.8z"/>
<path class="st19" d="M441.7,238.5l-7.9,2.8c0,0-9.9,4.1-7.8,10.8l18.1-8L441.7,238.5z"/>
<path class="st19" d="M513.2,234l-3.2,7.7c0,0-3.5,10.1,2.9,13l6.1-18.8L513.2,234z"/>
<path class="st20" d="M547.6,175.1l7.3-3l-0.4,7.8c0,0,10.7,16.2,5.2,17.9s-11.2-9.8-11.2-9.8s-1.9,5.5-4.6,4.3  c-2.7-1.2,4.5-12.6,4.5-12.6L547.6,175.1z"/>
<path class="st28" d="M503.7,102.8c29.1,5.5,40.1,15.7,47.5,29.8c9.6,18,4.9,42.9,4.9,42.9h-9c-1.7-14.7-1-38.4-34.2-46.9  L503.7,102.8z"/>
<g>
	<path class="st19" d="M486.5,102.7c0,0-6.6,7.7-2.6,8.1s8.5-6.1,8.5-6.1s1.1,8.8,6,7.1c5.4-1.9,4-9.4,4-9.4L486.5,102.7z"/>
	
		<ellipse transform="matrix(0.2582 -0.9661 0.9661 0.2582 250.6821 560.1376)" class="st19" cx="490.1" cy="116.8" rx="2.5" ry="2.5"/>
	
		<ellipse transform="matrix(0.2582 -0.9661 0.9661 0.2582 239.6782 565.7939)" class="st19" cx="488.3" cy="126.8" rx="2.5" ry="2.5"/>
</g>
<path class="st18" d="M469.6,67.4c-2.6-1.2-6.2-6.9-8.8-11.4c-0.1,4.5,2.2,9.1,3.5,13c1.4,4.2-5.8,4.5-5.8,4.5  c5.2,5.1,11.9,2.2,14,1.4c0.1,0,1.5-6.7,2.2-9.7C474,66.7,472.6,68.8,469.6,67.4z"/>
<path class="st19" d="M349,139.4c0.9-1.9,1.6-4.5,0.4-8c-2.5-7.2-12.4-5.3-12.4-5.3s-1.1-7.7-9.2-8.5c-8.1-0.9-10,6.8-10,6.8  c-4-3.4-11.4-5.7-16.4-1.9c-7.2,5.6-3.7,16.1-3.7,16.1c-0.7-0.2-2.2,0-3.7,0.8c0,0,0,0,0,0.1c-1.9,1-3.6,3.2-4,7.1  c-0.6,7.1,7.6,11.5,7.6,11.5c-0.8,11.4,8.7,13.6,11.5,12.5l1.2-12.7c5.5-0.1,7.1-7.6,7.5-10.8c0.1-0.8,0.1-1.4,0.1-1.4  c1.9,0.4,3.7,0.6,5.3,0.6h0.1c0,0,0,0,0,0c10.9-0.3,15.5-10.1,15.5-10.1v0.1c0.1,0,0.1,0.1,0.2,0.1l5,16.5  c8.4-4.4,2.6-10.6,2.6-10.6s1.2-0.9,2.3-2.7c0,0,0,0,0,0C348.9,139.6,348.9,139.5,349,139.4C349,139.5,349,139.4,349,139.4  C349,139.4,349,139.4,349,139.4z"/>
<g>
	<path class="st32" d="M318.5,141.6c-1.6-0.8-3.6-0.3-5,0.7s-2.5,2.5-3.4,4s-1.9,3.1-3.2,4.3c-1.3,1.2-2.9,1.9-4.7,2.1   c-1.4,0.2-2.9,0-4.1-0.8c-1.1-0.7-1.8-1.8-2.4-3c-1.4-2.9-2-6.3-1.6-9.5c-1.9,1-3.7,3.2-4.1,7.2c-0.6,7.1,7.6,11.5,7.6,11.5   c-0.8,11.4,8.7,13.6,11.5,12.5l1.2-12.7l0,0c5.5-0.1,7.1-7.6,7.5-10.8c0.1-0.8,0.1-1.4,0.1-1.4c1.9,0.4,3.7,0.6,5.3,0.6h0.1l0,0   c-0.3-0.5-0.6-1-0.9-1.6L318.5,141.6z"/>
</g>
<g>
	<path class="st32" d="M339,136.4l5.1,16.7c8.4-4.4,2.6-10.6,2.6-10.6s1.2-1.2,2.3-3.1C345.4,139.7,341.8,138.7,339,136.4z"/>
</g>
<path class="st16" d="M314.9,159.1c0,0-7.5-9.7-10.2-5.9c-4.3,6.1,10.7,12.7,10.7,12.7L314.9,159.1z"/>
<ellipse class="st0" cx="303.9" cy="389" rx="81.5" ry="5.4"/>
<path class="st19" d="M344.1,366.5c12.2-12.4,28.1-32.2,25.6-55.6c-2.2-20.8-15.8-47.5-53.1-55l-46-1.1  c-0.7,20.3,11.8,46.4,33.3,69.1c0,0-25.4,2.8-52.6,22.2l2,6.2c0,0,59.6-2,72.5-15.8c10.5-11.2-23.8-56.8-16.7-56.3  c5.2,0.4,33,14.5,38.1,34.4c3.4,13.3-1.1,33.9-11.6,49L344.1,366.5z"/>
<path class="st25" d="M256.4,351.3c0,0,4.4,7.4,0.8,15.5l-10.5-19.1l6.9-3.3L256.4,351.3z"/>
<path class="st25" d="M342.5,365c0,0,7.3,4.4,8.1,13.3l-16.8-11.9l3.3-5.2L342.5,365z"/>
</svg>